<svg xmlns="http://www.w3.org/2000/svg" width="319" height="65" viewBox="0 0 319 65" fill="none"><path d="M316.406 41.0478V38.2263L316.333 37.7642V33.0455C316.333 31.9591 316.025 31.124 315.409 30.5402C314.809 29.9565 313.909 29.6646 312.709 29.6646C311.882 29.6646 311.095 29.8024 310.35 30.0781C309.604 30.3537 308.971 30.7186 308.452 31.1726L307.674 29.8835C308.323 29.3322 309.101 28.9106 310.009 28.6187C310.917 28.3106 311.874 28.1565 312.879 28.1565C314.533 28.1565 315.806 28.57 316.698 29.397C317.606 30.2078 318.06 31.4483 318.06 33.1185V41.0478H316.406ZM312.003 41.1695C311.047 41.1695 310.212 41.0154 309.498 40.7073C308.801 40.383 308.266 39.9452 307.893 39.3939C307.52 38.8263 307.333 38.1777 307.333 37.448C307.333 36.7832 307.487 36.1832 307.796 35.6481C308.12 35.0968 308.639 34.6589 309.352 34.3346C310.082 33.9941 311.055 33.8239 312.271 33.8239H316.674V35.113H312.32C311.087 35.113 310.228 35.3319 309.741 35.7697C309.271 36.2075 309.036 36.7507 309.036 37.3994C309.036 38.1291 309.32 38.7128 309.887 39.1506C310.455 39.5884 311.249 39.8074 312.271 39.8074C313.244 39.8074 314.079 39.5884 314.776 39.1506C315.49 38.6966 316.009 38.048 316.333 37.2048L316.722 38.3966C316.398 39.2398 315.83 39.9128 315.02 40.4154C314.225 40.9181 313.22 41.1695 312.003 41.1695Z" fill="#00003A"></path><path d="M299.781 41.0478V28.2782H301.435V31.7564L301.265 31.1483C301.622 30.1754 302.222 29.4376 303.065 28.9349C303.908 28.416 304.954 28.1565 306.203 28.1565V29.8348C306.138 29.8348 306.073 29.8348 306.008 29.8348C305.943 29.8186 305.878 29.8105 305.813 29.8105C304.468 29.8105 303.414 30.224 302.651 31.051C301.889 31.8618 301.508 33.0212 301.508 34.5292V41.0478H299.781Z" fill="#00003A"></path><path d="M293.249 41.0478V28.2781H294.976V41.0478H293.249ZM294.125 25.4566C293.768 25.4566 293.468 25.335 293.225 25.0918C292.982 24.8486 292.86 24.5567 292.86 24.2162C292.86 23.8756 292.982 23.5919 293.225 23.3648C293.468 23.1216 293.768 23 294.125 23C294.482 23 294.782 23.1135 295.025 23.3405C295.268 23.5675 295.39 23.8513 295.39 24.1918C295.39 24.5486 295.268 24.8486 295.025 25.0918C294.798 25.335 294.498 25.4566 294.125 25.4566Z" fill="#00003A"></path><path d="M283.994 41.1695C282.664 41.1695 281.497 40.8938 280.491 40.3425C279.486 39.7749 278.699 39.0047 278.132 38.0318C277.564 37.0426 277.281 35.9156 277.281 34.6508C277.281 33.386 277.548 32.2672 278.083 31.2942C278.635 30.3213 279.381 29.5592 280.321 29.0079C281.278 28.4403 282.348 28.1565 283.532 28.1565C284.732 28.1565 285.794 28.4322 286.718 28.9835C287.659 29.5186 288.396 30.2808 288.931 31.2699C289.467 32.2428 289.734 33.3698 289.734 34.6508C289.734 34.7319 289.726 34.8211 289.71 34.9184C289.71 34.9995 289.71 35.0887 289.71 35.186H278.594V33.8968H288.786L288.104 34.4076C288.104 33.4833 287.902 32.6644 287.496 31.951C287.107 31.2213 286.572 30.6537 285.891 30.2483C285.21 29.843 284.424 29.6403 283.532 29.6403C282.656 29.6403 281.87 29.843 281.172 30.2483C280.475 30.6537 279.932 31.2213 279.543 31.951C279.154 32.6807 278.959 33.5158 278.959 34.4563V34.7238C278.959 35.6967 279.17 36.5562 279.591 37.3021C280.029 38.0318 280.629 38.6074 281.391 39.029C282.17 39.4344 283.053 39.6371 284.042 39.6371C284.821 39.6371 285.542 39.4993 286.207 39.2236C286.888 38.9479 287.472 38.5263 287.959 37.9588L288.931 39.0777C288.364 39.7587 287.65 40.2776 286.791 40.6343C285.948 40.9911 285.015 41.1695 283.994 41.1695Z" fill="#00003A"></path><path d="M269.027 41.0479L263.359 28.2782H265.159L270.364 40.1236H269.513L274.791 28.2782H276.494L270.802 41.0479H269.027Z" fill="#00003A"></path><path d="M259.211 41.0478V28.2781H260.938V41.0478H259.211ZM260.087 25.4566C259.73 25.4566 259.43 25.335 259.187 25.0918C258.943 24.8486 258.822 24.5567 258.822 24.2162C258.822 23.8756 258.943 23.5919 259.187 23.3648C259.43 23.1216 259.73 23 260.087 23C260.443 23 260.743 23.1135 260.987 23.3405C261.23 23.5675 261.351 23.8513 261.351 24.1918C261.351 24.5486 261.23 24.8486 260.987 25.0918C260.76 25.335 260.46 25.4566 260.087 25.4566Z" fill="#00003A"></path><path d="M252.679 41.0478V23H254.406V41.0478H252.679Z" fill="#00003A"></path><path d="M240.083 41.1938C238.802 41.1938 237.61 40.983 236.507 40.5614C235.421 40.1236 234.472 39.5155 233.661 38.7371C232.867 37.9426 232.243 37.0264 231.788 35.9886C231.351 34.9346 231.132 33.7833 231.132 32.5347C231.132 31.2861 231.351 30.1429 231.788 29.1051C232.243 28.0511 232.867 27.135 233.661 26.3566C234.472 25.5621 235.421 24.954 236.507 24.5324C237.594 24.0946 238.785 23.8757 240.083 23.8757C241.364 23.8757 242.547 24.0946 243.634 24.5324C244.72 24.954 245.661 25.554 246.455 26.3323C247.266 27.1106 247.89 28.0268 248.328 29.0808C248.782 30.1348 249.009 31.2861 249.009 32.5347C249.009 33.7833 248.782 34.9346 248.328 35.9886C247.89 37.0426 247.266 37.9588 246.455 38.7371C245.661 39.5155 244.72 40.1236 243.634 40.5614C242.547 40.983 241.364 41.1938 240.083 41.1938ZM240.083 39.5884C241.104 39.5884 242.045 39.4182 242.904 39.0777C243.78 38.7209 244.534 38.2263 245.166 37.5939C245.815 36.9453 246.318 36.1994 246.674 35.3562C247.031 34.4968 247.209 33.5563 247.209 32.5347C247.209 31.5131 247.031 30.5808 246.674 29.7376C246.318 28.8781 245.815 28.1322 245.166 27.4998C244.534 26.8512 243.78 26.3566 242.904 26.0161C242.045 25.6594 241.104 25.481 240.083 25.481C239.061 25.481 238.113 25.6594 237.237 26.0161C236.361 26.3566 235.599 26.8512 234.95 27.4998C234.318 28.1322 233.815 28.8781 233.442 29.7376C233.086 30.5808 232.907 31.5131 232.907 32.5347C232.907 33.5401 233.086 34.4725 233.442 35.3319C233.815 36.1913 234.318 36.9453 234.95 37.5939C235.599 38.2263 236.361 38.7209 237.237 39.0777C238.113 39.4182 239.061 39.5884 240.083 39.5884Z" fill="#00003A"></path><path d="M216.654 41.1694C215.324 41.1694 214.157 40.8938 213.151 40.3425C212.146 39.7749 211.359 39.0047 210.792 38.0318C210.224 37.0426 209.941 35.9156 209.941 34.6508C209.941 33.386 210.208 32.2672 210.743 31.2942C211.295 30.3213 212.04 29.5592 212.981 29.0079C213.938 28.4403 215.008 28.1565 216.192 28.1565C217.392 28.1565 218.454 28.4322 219.378 28.9835C220.318 29.5186 221.056 30.2808 221.591 31.2699C222.126 32.2428 222.394 33.3698 222.394 34.6508C222.394 34.7319 222.386 34.8211 222.37 34.9184C222.37 34.9995 222.37 35.0887 222.37 35.1859H211.254V33.8968H221.445L220.764 34.4076C220.764 33.4833 220.562 32.6644 220.156 31.951C219.767 31.2213 219.232 30.6537 218.551 30.2483C217.87 29.8429 217.083 29.6403 216.192 29.6403C215.316 29.6403 214.529 29.8429 213.832 30.2483C213.135 30.6537 212.592 31.2213 212.203 31.951C211.813 32.6807 211.619 33.5157 211.619 34.4562V34.7238C211.619 35.6967 211.83 36.5561 212.251 37.3021C212.689 38.0318 213.289 38.6074 214.051 39.029C214.829 39.4344 215.713 39.6371 216.702 39.6371C217.481 39.6371 218.202 39.4993 218.867 39.2236C219.548 38.9479 220.132 38.5263 220.618 37.9588L221.591 39.0777C221.024 39.7587 220.31 40.2776 219.451 40.6343C218.608 40.9911 217.675 41.1694 216.654 41.1694ZM214.586 26.2837L217.919 23.2676H220.229L216.289 26.2837H214.586Z" fill="#00003A"></path><path d="M201.776 41.0478V28.2782H203.43V31.7564L203.26 31.1483C203.616 30.1754 204.216 29.4376 205.06 28.9349C205.903 28.416 206.949 28.1565 208.197 28.1565V29.8348C208.132 29.8348 208.068 29.8348 208.003 29.8348C207.938 29.8186 207.873 29.8105 207.808 29.8105C206.462 29.8105 205.408 30.224 204.646 31.051C203.884 31.8618 203.503 33.0212 203.503 34.5292V41.0478H201.776Z" fill="#00003A"></path><path d="M190.375 41.1694C189.159 41.1694 188.064 40.8938 187.091 40.3424C186.134 39.7911 185.38 39.029 184.829 38.0561C184.278 37.0669 184.002 35.9318 184.002 34.6508C184.002 33.3536 184.278 32.2185 184.829 31.2456C185.38 30.2726 186.134 29.5186 187.091 28.9835C188.064 28.4322 189.159 28.1565 190.375 28.1565C191.494 28.1565 192.491 28.4079 193.367 28.9105C194.258 29.4132 194.964 30.151 195.483 31.1239C196.018 32.0807 196.285 33.2563 196.285 34.6508C196.285 36.0291 196.026 37.2047 195.507 38.1777C194.988 39.1506 194.283 39.8965 193.391 40.4154C192.515 40.9181 191.51 41.1694 190.375 41.1694ZM190.496 39.6371C191.404 39.6371 192.215 39.4344 192.929 39.029C193.658 38.6074 194.226 38.0236 194.631 37.2777C195.053 36.5156 195.264 35.64 195.264 34.6508C195.264 33.6455 195.053 32.7698 194.631 32.0239C194.226 31.278 193.658 30.7023 192.929 30.297C192.215 29.8754 191.404 29.6646 190.496 29.6646C189.605 29.6646 188.802 29.8754 188.088 30.297C187.375 30.7023 186.807 31.278 186.386 32.0239C185.964 32.7698 185.753 33.6455 185.753 34.6508C185.753 35.64 185.964 36.5156 186.386 37.2777C186.807 38.0236 187.375 38.6074 188.088 39.029C188.802 39.4344 189.605 39.6371 190.496 39.6371ZM195.312 41.0478V37.2047L195.483 34.6265L195.239 32.0482V23H196.966V41.0478H195.312Z" fill="#00003A"></path><path d="M175.373 28.1565C176.411 28.1565 177.319 28.3592 178.097 28.7646C178.891 29.1538 179.508 29.7538 179.945 30.5645C180.4 31.3753 180.627 32.3969 180.627 33.6293V41.0478H178.9V33.7995C178.9 32.4536 178.559 31.4402 177.878 30.7591C177.213 30.0619 176.273 29.7132 175.057 29.7132C174.148 29.7132 173.354 29.8997 172.673 30.2727C172.008 30.6294 171.489 31.1564 171.116 31.8537C170.759 32.5347 170.581 33.3617 170.581 34.3346V41.0478H168.854V28.2782H170.508V31.7807L170.241 31.124C170.646 30.1997 171.295 29.4781 172.186 28.9592C173.078 28.4241 174.14 28.1565 175.373 28.1565Z" fill="#00003A"></path><path d="M149.06 41.0478L156.843 24.0215H158.619L166.402 41.0478H164.505L157.354 25.0674H158.084L150.933 41.0478H149.06ZM152.125 36.4993L152.66 35.04H162.559L163.094 36.4993H152.125Z" fill="#00003A"></path><path d="M101.619 64.5391C96.8112 64.5391 92.3344 63.7278 88.188 62.1053C84.1017 60.4828 80.5563 58.2294 77.5517 55.3449C74.5471 52.4004 72.2035 48.9752 70.5209 45.0692C68.8383 41.1632 67.997 36.8966 67.997 32.2695C67.997 27.6424 68.8383 23.3759 70.5209 19.4699C72.2035 15.5639 74.5471 12.1687 77.5517 9.28425C80.5563 6.33973 84.1017 4.05622 88.188 2.43373C92.2743 0.811242 96.7511 0 101.619 0C106.426 0 110.843 0.811242 114.869 2.43373C118.955 3.99613 122.501 6.24959 125.505 9.19411C128.57 12.0785 130.914 15.4737 132.536 19.3797C134.219 23.2857 135.06 27.5823 135.06 32.2695C135.06 36.9567 134.219 41.2533 132.536 45.1593C130.914 49.0653 128.57 52.4906 125.505 55.4351C122.501 58.3195 118.955 60.573 114.869 62.1955C110.843 63.7579 106.426 64.5391 101.619 64.5391ZM101.619 56.5168C105.104 56.5168 108.319 55.9158 111.263 54.714C114.268 53.5121 116.852 51.8296 119.015 49.6662C121.239 47.4428 122.951 44.8589 124.153 41.9143C125.415 38.9698 126.046 35.7549 126.046 32.2695C126.046 28.7842 125.415 25.5692 124.153 22.6247C122.951 19.6802 121.239 17.1263 119.015 14.963C116.852 12.7395 114.268 11.0269 111.263 9.82508C108.319 8.62323 105.104 8.02231 101.619 8.02231C98.0732 8.02231 94.7982 8.62323 91.7935 9.82508C88.849 11.0269 86.2651 12.7395 84.0416 14.963C81.8182 17.1263 80.0756 19.6802 78.8136 22.6247C77.6118 25.5692 77.0108 28.7842 77.0108 32.2695C77.0108 35.7549 77.6118 38.9698 78.8136 41.9143C80.0756 44.8589 81.8182 47.4428 84.0416 49.6662C86.2651 51.8296 88.849 53.5121 91.7935 54.714C94.7982 55.9158 98.0732 56.5168 101.619 56.5168Z" fill="#00003A"></path><path d="M0 64.5428L29.2287 0H38.3569L67.6777 64.5428H57.9963L31.9026 5.16342H35.5907L9.49701 64.5428H0ZM12.4475 48.4071L14.937 41.0308H51.2654L53.9394 48.4071H12.4475Z" fill="#00003A"></path></svg>