<svg xmlns="http://www.w3.org/2000/svg" width="136" height="65" viewBox="0 0 136 65" fill="none"><path d="M101.619 64.5391C96.8112 64.5391 92.3344 63.7278 88.188 62.1053C84.1017 60.4828 80.5563 58.2294 77.5517 55.3449C74.5471 52.4004 72.2035 48.9752 70.5209 45.0692C68.8383 41.1632 67.997 36.8966 67.997 32.2695C67.997 27.6424 68.8383 23.3759 70.5209 19.4699C72.2035 15.5639 74.5471 12.1687 77.5517 9.28425C80.5563 6.33973 84.1017 4.05622 88.188 2.43373C92.2743 0.811242 96.7511 0 101.619 0C106.426 0 110.843 0.811242 114.869 2.43373C118.955 3.99613 122.501 6.24959 125.505 9.19411C128.57 12.0785 130.914 15.4737 132.536 19.3797C134.219 23.2857 135.06 27.5823 135.06 32.2695C135.06 36.9567 134.219 41.2533 132.536 45.1593C130.914 49.0653 128.57 52.4906 125.505 55.4351C122.501 58.3195 118.955 60.573 114.869 62.1955C110.843 63.7579 106.426 64.5391 101.619 64.5391ZM101.619 56.5168C105.104 56.5168 108.319 55.9158 111.263 54.714C114.268 53.5121 116.852 51.8296 119.015 49.6662C121.239 47.4428 122.951 44.8589 124.153 41.9143C125.415 38.9698 126.046 35.7549 126.046 32.2695C126.046 28.7842 125.415 25.5692 124.153 22.6247C122.951 19.6802 121.239 17.1263 119.015 14.963C116.852 12.7395 114.268 11.0269 111.263 9.82508C108.319 8.62323 105.104 8.02231 101.619 8.02231C98.0732 8.02231 94.7982 8.62323 91.7935 9.82508C88.849 11.0269 86.2651 12.7395 84.0416 14.963C81.8182 17.1263 80.0756 19.6802 78.8136 22.6247C77.6118 25.5692 77.0108 28.7842 77.0108 32.2695C77.0108 35.7549 77.6118 38.9698 78.8136 41.9143C80.0756 44.8589 81.8182 47.4428 84.0416 49.6662C86.2651 51.8296 88.849 53.5121 91.7935 54.714C94.7982 55.9158 98.0732 56.5168 101.619 56.5168Z" fill="#00003A"></path><path d="M0 64.5428L29.2287 0H38.3569L67.6777 64.5428H57.9963L31.9026 5.16342H35.5907L9.49701 64.5428H0ZM12.4475 48.4071L14.9371 41.0308H51.2654L53.9394 48.4071H12.4475Z" fill="#00003A"></path></svg>